{"title":"Moms Birthday Gift - Gangbang fuck[VPSR].mp4","uid":10756834,"size":89575370,"categoryP":"porn","categoryS":"other","magnet":"?xt=urn:btih:b4024811e9c467928d069743abbce906fcd1a4cb&amp;dn=Moms+Birthday+Gift+-+Gangbang+fuck%5BVPSR%5D.mp4&amp;tr=udp%3A%2F%2Ftracker.openbittorrent.com%3A80&amp;tr=udp%3A%2F%2Fopen.demonii.com%3A1337&amp;tr=udp%3A%2F%2Ftracker.coppersurfer.tk%3A6969&amp;tr=udp%3A%2F%2Fexodus.desync.com%3A6969","seeders":0,"leechers":1,"uploader":"vpsr","files":1,"time":1407939708,"description":"Moms Birthday Gift - Gangbang fuck[VPSR].mp4\n\n &lt;a href=&quot;\nhttp://s25.postimg.org/v5xcdhmlb/MOM.jpg&quot; rel=&quot;nofollow&quot; target=&quot;_NEW&quot;&gt;\nhttp://s25.postimg.org/v5xcdhmlb/MOM.jpg&lt;/a&gt;\n\n &lt;a href=&quot;\nhttp://s25.postimg.org/j80ddc87z/Moms_Birthday_Gift_Gangbang_fuck_VPSR.jpg&quot; rel=&quot;nofollow&quot; target=&quot;_NEW&quot;&gt;\nhttp://s25.postimg.org/j80ddc87z/Moms_Birthday_Gift_Gangbang_fuck_VPSR.jpg&lt;/a&gt;\n\n\nFILE INFO\n\n\nGeneral\nComplete name                            : Moms Birthday Gift - Gangbang fuck[VPSR].mp4\nFormat                                   : MPEG-4\nFormat profile                           : Base Media\nCodec ID                                 : isom\nFile size                                : 85.4 MiB\nDuration                                 : 20mn 5s\nOverall bit rate mode                    : Variable\nOverall bit rate                         : 595 Kbps\nWriting application                      : Lavf53.5.0\n\nVideo\nID                                       : 1\nFormat                                   : AVC\nFormat/Info                              : Advanced Video Codec\nFormat profile                           : &lt;a class=&quot;__cf_email__&quot; href=&quot;/cdn-cgi/l/email-protection&quot; data-cfemail=&quot;bdf5d4dad5fdf18f938d&quot;&gt;[email&amp;#160;protected]&lt;/a&gt;&lt;script cf-hash='f9e31' type=&quot;text/javascript&quot;&gt;\n/* &lt;![CDATA[ */!function(){try{var t=&quot;currentScript&quot;in document?document.currentScript:function(){for(var t=document.getElementsByTagName(&quot;script&quot;),e=t.length;e--;)if(t[e].getAttribute(&quot;cf-hash&quot;))return t[e]}();if(t&amp;&amp;t.previousSibling){var e,r,n,i,c=t.previousSibling,a=c.getAttribute(&quot;data-cfemail&quot;);if(a){for(e=&quot;&quot;,r=parseInt(a.substr(0,2),16),n=2;a.length-n;n+=2)i=parseInt(a.substr(n,2),16)^r,e+=String.fromCharCode(i);e=document.createTextNode(e),c.parentNode.replaceChild(e,c)}}}catch(u){}}();/* ]]&gt; */&lt;/script&gt;\nFormat settings, CABAC                   : Yes\nFormat settings, ReFrames                : 4 frames\nCodec ID                                 : avc1\nCodec ID/Info                            : Advanced Video Coding\nDuration                                 : 20mn 4s\nBit rate                                 : 512 Kbps\nWidth                                    : 320 pixels\nHeight                                   : 240 pixels\nDisplay aspect ratio                     : 4:3\nFrame rate mode                          : Variable\nFrame rate                               : 25.000 fps\nMinimum frame rate                       : 12.500 fps\nMaximum frame rate                       : 25.000 fps\nColor space                              : YUV\nChroma subsampling                       : 4:2:0\nBit depth                                : 8 bits\nScan type                                : Progressive\nBits/(Pixel*Frame)                       : 0.267\nStream size                              : 73.5 MiB (86%)\nWriting library                          : x264 core 119\n\nAudio\nID                                       : 2\nFormat                                   : AAC\nFormat/Info                              : Advanced Audio Codec\nFormat profile                           : LC\nCodec ID                                 : 40\nDuration                                 : 20mn 5s\nBit rate mode                            : Variable\nBit rate                                 : 50.5 Kbps\nMaximum bit rate                         : 56.0 Kbps\nChannel(s)                               : 2 channels\nChannel positions                        : Front: L R\nSampling rate                            : 22.05 KHz\nCompression mode                         : Lossy\nStream size                              : 7.25 MiB (8%)\n\nOther #1\nID                                       : 65536\nType                                     : Hint\nFormat                                   : RTP\nCodec ID                                 : rtp \nDuration                                 : 20mn 4s\n\nOther #2\nID                                       : 65537\nType                                     : Hint\nFormat                                   : RTP\nCodec ID                                 : rtp \nDuration                                 : 20mn 5s\nBit rate mode                            : VBR\n","torrent":{"xt":"urn:btih:b4024811e9c467928d069743abbce906fcd1a4cb","amp;dn":"Moms+Birthday+Gift+-+Gangbang+fuck%5BVPSR%5D.mp4","amp;tr":["udp%3A%2F%2Ftracker.openbittorrent.com%3A80","udp%3A%2F%2Fopen.demonii.com%3A1337","udp%3A%2F%2Ftracker.coppersurfer.tk%3A6969","udp%3A%2F%2Fexodus.desync.com%3A6969"],"infoHash":"b4024811e9c467928d069743abbce906fcd1a4cb","infoHashBuffer":{"type":"Buffer","data":[180,2,72,17,233,196,103,146,141,6,151,67,171,188,233,6,252,209,164,203]},"announce":[],"urlList":[]}}